PathFileType	4	(X/Y/Z)	Patient4_TMGait_0pt8_01_left_46.trc.trc
DataRate	CameraRate	NumFrames	NumMarkers	Units	OrigDataRate	OrigDataStartFrame	OrigNumFrames
89.171974522293	89.171974522293	4	33	mm	89.171974522293	53	       141
Frame#	Time	Sacral			L.Shoulder			Chest			R.Shoulder			Neck			R.ASIS			L.ASIS			R.Thigh.Superior			R.Thigh.Lateral			R.Thigh.Inferior			R.Patella			L.Thigh.Superior			L.Thigh.Lateral			L.Thigh.Inferior			L.Patella			L.Shank.Superior			L.Shank.Lateral			L.Shank.Inferior			R.Shank.Superior			R.Shank.Lateral			R.Shank.Inferior			R.Heel			R.Midfoot.Superior			R.Midfoot.Lateral			R.Toe			L.Heel			L.Midfoot.Lateral			L.Midfoot.Superior			L.Toe			L.Elbow			L.Wrist			R.Elbow			R.Wrist			
		X1	Y1	Z1	X2	Y2	Z2	X3	Y3	Z3	X4	Y4	Z4	X5	Y5	Z5	X6	Y6	Z6	X7	Y7	Z7	X8	Y8	Z8	X9	Y9	Z9	X10	Y10	Z10	X11	Y11	Z11	X12	Y12	Z12	X13	Y13	Z13	X14	Y14	Z14	X15	Y15	Z15	X16	Y16	Z16	X17	Y17	Z17	X18	Y18	Z18	X19	Y19	Z19	X20	Y20	Z20	X21	Y21	Z21	X22	Y22	Z22	X23	Y23	Z23	X24	Y24	Z24	X25	Y25	Z25	X26	Y26	Z26	X27	Y27	Z27	X28	Y28	Z28	X29	Y29	Z29	X30	Y30	Z30	X31	Y31	Z31	X32	Y32	Z32	X33	Y33	Z33	

53	51.793142857143	875.156241144998	1009.085770935370	453.205992015512	1051.058709887878	1445.939001315915	298.958261874260	1150.491009827059	1372.001833548034	459.935561988523	1058.366160915785	1433.070521491039	635.282369453079	1028.714962793724	1498.604653813641	458.457359246685	1098.511680101879	945.307905749645	576.382740157324	1094.974329484987	968.688778378373	302.870163829021	1177.629086547010	770.987014334142	551.336864448088	1134.032175403252	652.222539682013	623.549614288652	1223.522807704999	608.392263820430	545.569261835535	1236.320107462315	492.904128314515	570.576377379144	1142.012285883378	753.416294535391	335.460668840105	1050.521804567537	637.194940394100	276.061091305118	1130.144610864651	558.632115701035	344.225948692789	1128.832947111569	489.731617774201	356.910714959313	1102.061995487819	417.088378574225	349.398464955858	1013.123349744760	303.025946655254	298.166743516569	1057.457973436143	192.970651067911	374.497038578687	1150.319189326224	426.765356643445	579.640476297987	1022.265382267694	407.393604355069	636.073585186037	996.282448655132	298.009921805816	593.625839822202	799.659010750912	279.844139815428	556.232222989551	937.012271272799	170.856960243408	608.208808310588	829.335452017703	202.421115219410	630.430833794325	959.690356807325	41.548799406212	631.944478646214	924.971544901255	38.640153846940	414.173123196480	1000.522550600133	36.337038658448	335.018018417140	1083.537387008391	96.737154084055	364.720765171329	1212.445932414310	43.201486053659	338.132505228733	1068.827261783943	1105.656092443305	148.248906724558	1250.856462883766	916.146880048926	151.799071294055	1029.266034063661	1075.033906348797	723.643106140681	1210.225470230498	889.169805290122	712.869621157966	
54	51.804357142857	873.958864331931	1009.609082090009	452.379417500176	1051.669514922566	1446.466045854070	298.123364836005	1150.030587224338	1372.232362952464	459.591185786292	1057.137166572633	1433.426289952922	634.447424229459	1028.495156288157	1499.081119011097	457.544919985612	1097.125201001057	946.341152861215	576.234995267331	1094.043970566501	968.952713797319	302.569617111262	1179.243818316325	775.703976957203	549.643240338250	1139.432238484033	655.955862396610	622.551929658604	1229.301619755772	614.218086532854	543.977697995183	1245.345268653106	498.917043913392	569.132134746951	1138.815757314647	752.302392330784	334.937879323006	1045.686323604749	637.172981629814	275.792307395668	1124.192065973661	557.644433766857	344.007997904058	1121.932501515020	488.914537071069	356.835066104243	1094.953193819264	416.677167257345	349.222577909120	1005.443043927664	303.079652533067	297.968323082706	1049.103749056350	192.808973951106	374.404992102818	1160.875704731394	430.731220158619	578.443799059768	1033.103792299763	408.133687408591	634.368350632799	1010.242878287712	297.965627802515	592.152011300785	813.655271595314	272.880088074810	553.871791781494	955.171655394482	170.222142257275	607.186554124101	846.361059243638	197.590483306471	628.932462571734	982.928151384994	42.578396244678	632.151984172348	915.948185215847	38.764468199005	414.081573652862	991.515396495864	36.375542704943	334.990700263786	1074.606756972243	96.688938744622	364.660026064188	1203.461704344005	42.986451207961	338.061133502813	1077.227025071247	1107.833582831240	145.637437601878	1269.902270073640	929.422794912530	150.760734439160	1022.212945447274	1075.447850601362	722.086396098458	1184.106901167839	872.048393345810	713.600061629717	
55	51.815571428571	872.776034546729	1010.108346353729	451.658330559960	1052.382842514224	1446.967361023902	297.391583036243	1149.653389406202	1372.394305695344	459.336040749264	1056.025798275486	1433.734984099016	633.694667654454	1028.334135484872	1499.506238942567	456.733624827940	1095.769980180967	947.287749806109	576.138814951472	1093.110355445841	969.145783200272	302.357818165311	1180.575453127482	780.216998774195	548.240647682457	1144.305722388378	659.590353992017	621.764924219857	1234.506316501341	619.849524153795	542.659395976672	1253.683874148939	504.926761430389	567.958924034158	1135.452379426824	751.156435842756	334.643509571670	1040.801336254915	637.163042769525	275.568057747261	1118.114872808829	556.656937536232	343.833938289368	1114.895422897962	488.122133928796	356.755646963921	1087.740382934844	416.298575525413	349.041369978289	997.685222239519	303.151972588238	297.772273614846	1040.705625310910	192.674025787029	374.295856830164	1171.040068580063	434.533688760470	577.438630518098	1043.766828134751	408.104585996059	632.868491634174	1024.512000536569	297.164621041810	590.798593792107	828.247911489128	264.396105128886	551.758905575213	974.201571222025	168.722763200426	606.224517997729	864.262386150884	191.381877224155	627.568138001645	1007.542226006177	42.944169520540	632.197191481436	906.929353646270	38.899694507182	414.002932021903	982.512096378849	36.415964556864	334.975350626083	1065.682779445445	96.645398367913	364.591124736608	1194.480706736013	42.769035037001	337.993702641003	1085.376145882654	1110.161802749030	143.315181958558	1287.915829649847	943.402710348601	150.165340966309	1015.498317155687	1076.020496033577	720.834629263586	1157.108344650928	857.407371623148	714.190157300548	
56	51.826785714286	871.616759822354	1010.558116574252	451.038398008807	1053.184838358340	1447.418018877563	296.778616134987	1149.364627688716	1372.469230882820	459.177721668281	1055.043624833746	1433.963920999719	633.044088865135	1028.236031579499	1499.855566816517	456.034697295246	1094.457929793610	948.102223681746	576.083861930253	1092.179935411906	969.255101030578	302.227444268261	1181.642459207406	784.428121661550	547.131694215050	1148.629912385124	663.029256243769	621.190859819217	1239.119389004917	625.166324897832	541.607318159103	1261.274029648392	510.811256902467	567.048956486839	1131.951788164270	749.981763696801	334.551992818973	1035.877239593161	637.163808113397	275.363433624251	1111.929844532205	555.670188968744	343.672259335390	1107.748156356164	487.358258363556	356.640575825792	1080.441501708571	415.945495104733	348.834824330554	989.857720502485	303.237637494546	297.569388074114	1032.270086230041	192.560907929560	374.161284896022	1180.750051869061	438.103148203778	576.623640898677	1054.259726196257	407.291052447767	631.623385855405	1039.042232558732	295.649354880436	589.601816714871	843.492245879128	254.572394690077	549.986933223469	993.985794076062	166.457285762616	605.381054743882	883.011059700315	183.986474602095	626.423724564770	1033.258727392247	42.723999282321	632.139920404652	897.918083441262	39.042187352059	413.937848158396	973.512169004700	36.455702924499	334.970998733020	1056.763493103070	96.606553111894	364.513136753611	1185.502910473802	42.553776599640	337.927759186517	1093.245290694607	1112.593850461962	141.270542101583	1304.837542467102	957.969723882262	149.991348890777	1008.916669697736	1076.736817880743	719.812162557040	1129.618902415828	845.370734853951	714.687445521179	
